<svg width="34" height="64" viewBox="0 0 34 64" fill="none" xmlns="http://www.w3.org/2000/svg">
<g clipPath="url(#clip0_594_3214)">
<path fillRule="evenodd" clipRule="evenodd" d="M24.5045 31.4L21.8498 58.7C21.8498 60 21.2372 61.2 20.4204 62.1C19.6036 62.9 18.3783 63.4 17.1531 63.4C15.8258 63.4 14.7027 62.9 13.8858 62.1C13.069 61.3 12.4564 60.2 12.4564 58.9L9.80176 31.4C9.59756 31.4 24.5045 31.4 24.5045 31.4Z" fill="#F06384"/>
<path d="M17.1531 64C15.7237 64 14.3963 63.5 13.3753 62.5C12.3543 61.5 11.7417 60.2 11.7417 58.8L9.08704 31.4L9.80175 31.3V30.6H25.2192L22.4624 58.6C22.4624 59.9 21.8498 61.2 20.8288 62.4C19.9099 63.5 18.4804 64 17.1531 64ZM10.5165 32L13.069 58.8C13.069 60.1 13.7837 61 14.2942 61.6C15.009 62.3 16.03 62.7 17.051 62.7C18.072 62.7 19.093 62.3 19.8078 61.6C20.2162 61.1 21.033 60 21.033 58.7L23.6876 32H10.5165Z" fill="#3F3F3F"/>
<path fillRule="evenodd" clipRule="evenodd" d="M28.5886 0.700012C29.9159 0.700012 31.1412 1.20001 31.958 2.10001C32.7748 2.90001 33.3874 4.10001 33.3874 5.40001L31.3454 37.9C31.3454 40.9 29.7117 43.7 27.2613 45.7C24.7087 47.7 21.033 49 17.0511 49C13.1712 49 9.59761 47.8 7.04506 45.8C4.49251 43.9 2.85887 41.2 2.75677 38.2L0.714728 5.80001C0.612626 4.50001 1.12314 3.30001 1.93995 2.40001C2.75677 1.50001 3.87989 0.900012 5.20722 0.800012L28.5886 0.700012Z" fill="white"/>
<path d="M17.0511 49.6C13.0691 49.6 9.3934 48.4 6.63664 46.3C3.87988 44.2 2.24625 41.3 2.04205 38.2L5.09154e-06 5.8C-0.102097 4.4 0.408413 3 1.42943 1.9C2.45046 0.8 3.67568 0.2 5.10511 0.1L28.5886 0C30.1201 0 31.5496 0.6 32.4685 1.6C33.4895 2.6 34.1021 4 34.1021 5.3L32.0601 37.8C32.0601 40.8 30.5285 43.8 27.7718 46.1C24.9129 48.4 21.033 49.6 17.0511 49.6ZM28.5886 1.3L5.20721 1.4C4.18619 1.5 3.16517 2 2.45046 2.8C1.73574 3.6 1.32733 4.7 1.42943 5.7L3.47148 38.1C3.57358 40.8 5.00301 43.3 7.45346 45.2C9.90391 47.2 13.4775 48.3 17.0511 48.3C20.7267 48.3 24.3003 47.2 26.8529 45.1C29.3033 43.1 30.6306 40.5 30.6306 37.8L32.6727 5.3C32.6727 4.3 32.1622 3.3 31.4475 2.5C30.7327 1.8 29.7117 1.3 28.5886 1.3Z" fill="#3F3F3F"/>
<path fillRule="evenodd" clipRule="evenodd" d="M28.5886 0.700012C29.9159 0.700012 31.1412 1.20001 31.958 2.10001C32.7748 2.90001 33.3874 4.10001 33.3874 5.40001L33.1832 8.80001H0.918932L0.714728 5.80001C0.612626 4.50001 1.12314 3.30001 1.93995 2.40001C2.75677 1.50001 3.87989 0.900012 5.20722 0.800012L28.5886 0.700012Z" fill="white"/>
<path d="M33.7958 9.4H0.306311L5.09154e-06 5.8C-0.102097 4.4 0.408413 3 1.42943 1.9C2.45046 0.8 3.67568 0.2 5.10511 0.1L28.5886 0C30.1201 0 31.5496 0.6 32.4685 1.6C33.4895 2.6 34.1021 4 34.1021 5.3L33.7958 9.4ZM1.53154 8.1H32.4685L32.6727 5.3C32.6727 4.3 32.1622 3.3 31.4475 2.5C30.7327 1.7 29.7117 1.3 28.5886 1.3L5.20721 1.4C4.18619 1.5 3.16517 2 2.45046 2.8C1.73574 3.6 1.32733 4.7 1.42943 5.7L1.53154 8.1Z" fill="#3F3F3F"/>
<path fillRule="evenodd" clipRule="evenodd" d="M16.949 34.5C22.7688 34.5 26.4445 30.4 26.4445 27.2C26.4445 24 22.7688 19.9 16.949 19.9C11.1292 19.9 7.45349 24 7.45349 27.2C7.45349 30.4 11.1292 34.5 16.949 34.5Z" fill="#FFB3C5"/>
<path d="M16.9489 31.9C19.5992 31.9 21.7477 29.7957 21.7477 27.2C21.7477 24.6043 19.5992 22.5 16.9489 22.5C14.2986 22.5 12.1501 24.6043 12.1501 27.2C12.1501 29.7957 14.2986 31.9 16.9489 31.9Z" fill="white"/>
<path fillRule="evenodd" clipRule="evenodd" d="M16.949 23.9C17.3574 23.9 17.6637 24 17.97 24.1C17.5616 24.3 17.2553 24.8 17.2553 25.4C17.2553 26.2 17.97 26.9 18.7868 26.9C19.3994 26.9 19.9099 26.5 20.1141 26C20.3183 26.4 20.3183 26.8 20.3183 27.2C20.3183 29 18.7868 30.5 16.949 30.5C15.1111 30.5 13.5796 29 13.5796 27.2C13.5796 25.4 15.1111 23.9 16.949 23.9Z" fill="#FFB3C5"/>
</g>
<defs>
<clipPath id="clip0_594_3214">
<rect width="34" height="64" fill="white"/>
</clipPath>
</defs>
</svg>
