<svg width="24" height="64" viewBox="0 0 24 64" fill="none" xmlns="http://www.w3.org/2000/svg">
<path fillRule="evenodd" clipRule="evenodd" d="M23.3975 36.1V56.1C23.3975 58.1 22.0921 59.8 20.1841 61.1C18.0753 62.5 15.1632 63.3 12.0502 63.3C8.93725 63.3 6.12554 62.5 4.01675 61.2C2.00838 60 0.80336 58.2 0.702942 56.3V36.1H23.3975Z" fill="white"/>
<path d="M12.0502 64C8.93724 64 5.92469 63.2 3.61506 61.8C1.40586 60.5 0.100418 58.5 0 56.4V35.4H24V56.1C24 58.2 22.795 60.1 20.4854 61.6C18.2761 63.2 15.2636 64 12.0502 64ZM1.30544 36.8V56.3C1.40586 58 2.51046 59.5 4.31799 60.6C6.42678 61.9 9.13808 62.6 12.0502 62.6C15.0628 62.6 17.7741 61.9 19.7824 60.5C21.0879 59.6 22.6946 58.1 22.6946 56.1V36.8H1.30544Z" fill="#3F3F3F"/>
<path d="M12.0502 41C18.3172 41 23.3975 38.5376 23.3975 35.5C23.3975 32.4625 18.3172 30 12.0502 30C5.78329 30 0.702942 32.4625 0.702942 35.5C0.702942 38.5376 5.78329 41 12.0502 41Z" fill="white"/>
<path d="M12.0502 41.7C5.32218 41.7 0 39 0 35.5C0 32 5.32218 29.3 12.0502 29.3C18.7782 29.3 24.1004 32 24.1004 35.5C24.1004 39 18.7782 41.7 12.0502 41.7ZM12.0502 30.7C6.22594 30.7 1.40586 32.9 1.40586 35.5C1.40586 38.1 6.32636 40.3 12.0502 40.3C17.7741 40.3 22.6946 38.1 22.6946 35.5C22.6946 32.9 17.7741 30.7 12.0502 30.7Z" fill="#3F3F3F"/>
<path fillRule="evenodd" clipRule="evenodd" d="M9.7406 0.699999C11.8494 0.399999 14.2594 2.1 16.1674 4.3C18.1758 6.7 19.682 9.9 19.7824 12.7V34.2C19.7824 34.6 19.5816 34.9 19.2804 35.2C18.8787 35.6 18.3766 36 17.6737 36.3C16.2678 37 14.2594 37.3 11.9498 37.3C9.7406 37.3 7.83265 36.9 6.32638 36.3C5.62345 36 5.12136 35.7 4.71968 35.3C4.41843 35 4.21759 34.7 4.21759 34.3V12V11.4C4.31801 9.9 4.61926 6.1 6.12554 3.3C6.92889 2 8.13391 0.8 9.7406 0.699999Z" fill="#F06384"/>
<path d="M11.9498 38C9.84099 38 7.83262 37.6 6.12551 37C5.32216 36.6 4.71965 36.3 4.31798 35.9C4.01673 35.6 3.61505 35.1 3.61505 34.4V11.4C3.71547 7.80001 4.4184 5.00001 5.523 3.00001C6.6276 1.20001 8.03346 0.200007 9.64016 7.011e-06C11.7489 -0.299993 14.2594 1.10001 16.6694 3.80001C18.8786 6.50001 20.3849 9.80001 20.4853 12.6V34.1C20.4853 34.8 20.0837 35.2 19.7824 35.6C19.1799 36.2 18.6778 36.6 17.9749 36.8C16.4686 37.6 14.4602 38 11.9498 38ZM10.1422 1.30001C10.0418 1.30001 9.84099 1.30001 9.74057 1.30001H9.64016C8.33472 1.50001 7.23011 2.70001 6.6276 3.70001C5.62342 5.50001 5.02091 8.10001 4.82007 11.5V34.4C4.82007 34.5 4.92049 34.7 5.12133 34.9C5.42258 35.2 5.82426 35.5 6.52719 35.8C8.03346 36.4 9.94141 36.7 11.8494 36.7C14.2594 36.7 16.0669 36.4 17.272 35.8C17.8745 35.6 18.2761 35.3 18.6778 34.8C18.9791 34.5 18.9791 34.4 18.9791 34.3V12.7C18.8786 10.2 17.5732 7.20001 15.5648 4.70001C13.7573 2.60001 11.7489 1.30001 10.1422 1.30001Z" fill="#3F3F3F"/>
<path fillRule="evenodd" clipRule="evenodd" d="M9.33894 0.700028C9.94145 0.600028 10.6444 0.700028 11.4477 0.900028C13.0544 1.30003 14.8619 2.40003 16.3682 3.90003C17.9749 5.50003 19.0795 7.20003 19.4812 8.90003C19.8829 10.3 19.8829 11.7 19.0795 12.5C18.7783 12.9 18.2762 13.1 17.7741 13.2C17.1716 13.3 16.4686 13.2 15.6653 13C14.0586 12.6 12.2511 11.5 10.7448 10C9.1381 8.40003 8.13391 6.60003 7.63182 5.00003C7.23015 3.50003 7.23015 2.20003 8.0335 1.40003C8.33475 1.00003 8.83684 0.800028 9.33894 0.700028Z" fill="#FFB3C5"/>
<path d="M17.272 13.9C16.7699 13.9 16.1674 13.8 15.4645 13.6C13.7573 13.2 11.8494 12 10.2427 10.4C8.73642 9.00002 7.5314 7.10002 6.92889 5.20002C6.4268 3.20002 6.62763 1.80002 7.5314 0.900015C7.83266 0.500015 8.43517 0.200015 9.1381 1.53966e-05C9.74061 -0.0999846 10.544 1.53929e-05 11.5481 0.200015C13.2552 0.600015 15.1632 1.80002 16.7699 3.40002C18.5774 5.20002 19.682 7.00002 20.0837 8.80002C20.5858 10.6 20.385 12.1 19.4812 13C19.1799 13.4 18.5774 13.7 17.8745 13.9C17.6737 13.9 17.4728 13.9 17.272 13.9ZM9.43935 1.40002C9.13809 1.40002 8.73642 1.50002 8.53558 1.80002C7.93307 2.40002 7.83266 3.40002 8.23433 4.80002C8.73642 6.50002 9.84102 8.10002 11.1465 9.50002C12.5523 10.9 14.2594 12 15.7657 12.3C16.5691 12.5 17.1716 12.6 17.5732 12.5C17.8745 12.4 18.2762 12.3 18.477 12.1C19.0795 11.5 19.1799 10.4 18.7783 9.10002C18.3766 7.50002 17.4728 6.00002 15.8661 4.40002C14.4603 3.00002 12.7532 1.90002 11.2469 1.60002C10.4435 1.40002 9.84102 1.30002 9.43935 1.40002Z" fill="#3F3F3F"/>
</svg>
