<svg width="32" height="64" viewBox="0 0 32 64" fill="none" xmlns="http://www.w3.org/2000/svg">
<g clipPath="url(#clip0_594_3220)">
<path fillRule="evenodd" clipRule="evenodd" d="M23.9504 51.4805V58.191C23.9504 58.9922 23.7516 59.7935 23.3541 60.4946C22.9566 61.1956 22.3603 61.7966 21.6646 62.1972C20.174 62.9985 18.3851 63.3991 16.0001 63.3991C13.7143 63.3991 11.8261 62.9985 10.3355 62.1972C9.6398 61.7966 9.04353 61.1956 8.64602 60.4946C8.2485 59.7935 8.04974 58.9922 8.04974 58.191V51.4805H23.9504Z" fill="#F06384"/>
<path d="M16 64C13.6149 64 11.6274 63.5994 10.0373 62.698C9.24226 62.1972 8.54661 61.4961 8.04972 60.6948C7.55282 59.8936 7.35406 58.9922 7.35406 58.0908V50.6792H24.5466V58.0908C24.5466 58.9922 24.3479 59.8936 23.851 60.6948C23.3541 61.4961 22.7578 62.1972 21.9628 62.5978C20.3727 63.5994 18.3851 64 16 64ZM8.64599 52.0814V58.0908C8.64599 58.7919 8.84475 59.493 9.14288 60.0939C9.44102 60.6948 10.0373 61.1956 10.6336 61.5963C12.0249 62.2974 13.8137 62.698 16 62.698C18.1864 62.698 19.9752 62.2974 21.3665 61.5963C21.9628 61.2958 22.4597 60.795 22.7578 60.1941C23.0559 59.5931 23.2547 58.892 23.2547 58.1909V52.1815H8.64599V52.0814Z" fill="#3F3F3F"/>
<path fillRule="evenodd" clipRule="evenodd" d="M26.7329 0.70108C28.0248 0.70108 29.2174 1.20186 30.0124 2.10327C30.8075 2.90452 31.4037 4.1064 31.4037 5.40844L27.1304 47.6745C27.0311 48.4757 26.7329 49.277 26.236 49.9781C25.7391 50.6792 25.1429 51.18 24.3478 51.4804C22.3602 52.3818 19.4783 52.8826 16 52.8826C12.4224 52.8826 9.63975 52.482 7.65217 51.4804C6.85714 51.18 6.26087 50.579 5.76398 49.9781C5.26708 49.277 4.96895 48.5759 4.86957 47.6745L0.695654 5.90922C0.596275 4.60718 0.993791 3.40531 1.68944 2.5039C2.48447 1.60249 3.57764 0.901393 4.77019 0.801237L26.7329 0.70108Z" fill="white"/>
<path d="M15.9999 53.4836C12.1242 53.4836 9.34155 52.9828 7.35397 51.9812C6.45956 51.6808 5.76391 50.8795 5.26701 50.2786C4.67074 49.3772 4.3726 48.5759 4.27322 47.5743L-6.7953e-05 5.90923C-0.0994468 4.50704 0.298069 3.10485 1.0931 2.00313C2.08689 0.801252 3.37881 0.200313 4.67074 0L26.7328 0C28.2235 0 29.6148 0.600939 30.5092 1.6025C31.503 2.60407 32.0993 4.00626 32.0993 5.30829L27.826 47.6745C27.7266 48.5759 27.3291 49.4773 26.8322 50.2786C26.236 51.0798 25.5403 51.6808 24.6459 51.9812C22.4596 52.9828 19.4782 53.4836 15.9999 53.4836ZM26.7328 1.30203L4.77012 1.40219C3.87571 1.50235 2.88192 2.00313 2.18627 2.90454C1.58999 3.70579 1.29186 4.70736 1.29186 5.80908L5.46577 47.5743C5.56515 48.2754 5.76391 48.8764 6.2608 49.5775C6.65832 49.9781 7.15521 50.579 7.85086 50.8795C9.73906 51.7809 12.3229 52.2817 15.9999 52.2817C19.3788 52.2817 22.1614 51.7809 24.0496 50.9797C24.7453 50.6792 25.2422 50.2786 25.6397 49.6776C26.0372 49.0767 26.3353 48.3756 26.4347 47.6745L30.708 5.40845C30.708 4.50704 30.2111 3.40532 29.5155 2.60407C28.8198 1.80282 27.826 1.30203 26.7328 1.30203Z" fill="#3F3F3F"/>
<path fillRule="evenodd" clipRule="evenodd" d="M16 19.5305C17.9876 19.5305 19.5776 21.133 19.5776 23.1362C19.5776 25.1393 17.9876 26.7418 16 26.7418C14.0124 26.7418 12.4224 25.1393 12.4224 23.1362C12.4224 21.133 14.0124 19.5305 16 19.5305Z" fill="#FFB3C5"/>
<path fillRule="evenodd" clipRule="evenodd" d="M18.6832 28.0438L19.2795 29.446C19.3789 29.7465 19.2795 30.1471 18.882 30.3474C18.5839 30.4476 18.1863 30.3474 17.9876 29.9468L17.3913 28.5446C17.2919 28.2441 17.3913 27.8435 17.7888 27.6432C18.1863 27.5431 18.5839 27.7434 18.6832 28.0438Z" fill="#FFB3C5"/>
<path fillRule="evenodd" clipRule="evenodd" d="M14.41 28.5446L13.8137 29.9468C13.7143 30.2473 13.3168 30.4476 12.9193 30.3474C12.6211 30.2473 12.4224 29.8467 12.5218 29.446L13.118 28.0438C13.2174 27.7434 13.6149 27.5431 14.0124 27.6432C14.41 27.8435 14.6087 28.2441 14.41 28.5446Z" fill="#FFB3C5"/>
<path fillRule="evenodd" clipRule="evenodd" d="M11.0311 25.8404L9.63979 26.4413C9.34165 26.5415 8.94414 26.4413 8.74538 26.0407C8.646 25.7402 8.74538 25.3396 9.14289 25.1393L10.5342 24.5384C10.8323 24.4382 11.2298 24.5384 11.4286 24.939C11.528 25.3396 11.3292 25.7402 11.0311 25.8404Z" fill="#FFB3C5"/>
<path fillRule="evenodd" clipRule="evenodd" d="M10.5342 21.5336L9.14291 20.9327C8.84477 20.8325 8.64602 20.4319 8.74539 20.0313C8.84477 19.7308 9.24229 19.5305 9.6398 19.6307L11.0311 20.2316C11.3292 20.3318 11.528 20.7324 11.4286 21.133C11.2299 21.5336 10.9317 21.6338 10.5342 21.5336Z" fill="#FFB3C5"/>
<path fillRule="evenodd" clipRule="evenodd" d="M13.2174 18.1283L12.6212 16.7261C12.5218 16.4257 12.6212 16.025 13.0187 15.8247C13.3168 15.7246 13.7143 15.8247 13.9131 16.2254L14.5094 17.6275C14.6087 17.928 14.5094 18.3286 14.1119 18.529C13.8137 18.6291 13.4162 18.4288 13.2174 18.1283Z" fill="#FFB3C5"/>
<path fillRule="evenodd" clipRule="evenodd" d="M17.4907 17.6275L18.087 16.2254C18.1863 15.9249 18.5839 15.7246 18.9814 15.8247C19.2795 15.9249 19.4783 16.3255 19.3789 16.7261L18.7826 18.1283C18.6832 18.4288 18.2857 18.6291 17.8882 18.529C17.5901 18.3286 17.3913 17.928 17.4907 17.6275Z" fill="#FFB3C5"/>
<path fillRule="evenodd" clipRule="evenodd" d="M20.969 20.3318L22.3603 19.7308C22.6584 19.6307 23.0559 19.7308 23.2547 20.1315C23.3541 20.4319 23.2547 20.8325 22.8572 21.0329L21.4659 21.6338C21.1677 21.734 20.7702 21.6338 20.5714 21.2332C20.3727 20.8325 20.5714 20.5321 20.969 20.3318Z" fill="#FFB3C5"/>
<path fillRule="evenodd" clipRule="evenodd" d="M21.3665 24.6385L22.7578 25.2395C23.0559 25.3396 23.2547 25.7402 23.1553 26.1409C23.0559 26.4413 22.6584 26.6416 22.2609 26.5415L20.8696 25.9405C20.5715 25.8404 20.3727 25.4398 20.4721 25.0391C20.6708 24.7387 21.0684 24.5384 21.3665 24.6385Z" fill="#FFB3C5"/>
</g>
<defs>
<clipPath id="clip0_594_3220">
<rect width="32" height="64" fill="white"/>
</clipPath>
</defs>
</svg>
